<?xml version="1.0" standalone="no"?>
<!DOCTYPE svg PUBLIC "-//W3C//DTD SVG 20010904//EN"
 "http://www.w3.org/TR/2001/REC-SVG-20010904/DTD/svg10.dtd">
<svg version="1.0" xmlns="http://www.w3.org/2000/svg"
 width="1280.000000pt" height="960.000000pt" viewBox="0 0 1280.000000 960.000000"
 preserveAspectRatio="xMidYMid meet">
<metadata>
Created by potrace 1.15, written by Peter Selinger 2001-2017
</metadata>
<g transform="translate(0.000000,960.000000) scale(0.100000,-0.100000)"
fill="#000000" stroke="none">
<path d="M7249 8484 c-20 -24 -65 -44 -101 -44 -18 0 -78 -16 -133 -36 -96
-34 -107 -36 -255 -39 -218 -4 -410 -20 -513 -41 -84 -17 -92 -18 -190 -1 -56
9 -136 17 -177 18 -41 0 -109 4 -150 9 -41 6 -127 16 -190 23 -85 10 -133 21
-185 44 -38 17 -82 33 -97 37 -43 10 -97 -19 -173 -93 -38 -37 -87 -78 -107
-90 -21 -12 -35 -28 -32 -35 5 -12 -65 -42 -93 -39 -7 0 -13 -3 -13 -8 0 -5
-9 -9 -20 -9 -11 0 -20 -3 -20 -7 0 -5 -28 -7 -62 -5 -51 2 -70 -1 -98 -19
-19 -13 -64 -37 -100 -55 -36 -17 -78 -42 -93 -56 -15 -13 -90 -46 -165 -73
-75 -26 -165 -60 -200 -76 -84 -38 -278 -165 -301 -198 -28 -39 -118 -315
-145 -444 -24 -114 -44 -261 -71 -532 -36 -365 -44 -477 -65 -870 -6 -110 -15
-272 -21 -360 -5 -88 -14 -328 -19 -533 -5 -205 -14 -466 -20 -580 -22 -437
-41 -740 -50 -822 -16 -142 -19 -184 -31 -495 -9 -234 -9 -357 1 -559 14 -283
9 -383 -21 -494 -20 -73 -19 -133 2 -172 60 -106 78 -293 60 -614 -7 -122 -15
-240 -18 -263 -5 -39 -3 -43 22 -49 15 -4 71 -1 124 6 53 7 214 16 358 19 255
6 263 7 285 28 22 22 22 28 24 280 1 334 12 387 111 556 53 91 56 118 24 232
-17 63 -22 107 -22 210 0 72 4 159 10 195 5 36 12 90 15 120 3 30 10 89 16
130 27 211 40 362 45 525 3 99 11 224 16 277 10 98 43 285 52 294 13 14 37
-145 37 -248 0 -62 7 -171 16 -241 13 -102 14 -140 5 -184 -6 -31 -11 -97 -11
-147 0 -50 -7 -116 -15 -146 -13 -47 -13 -88 -3 -294 12 -248 8 -349 -28 -591
-8 -55 -15 -147 -17 -205 l-2 -105 40 -13 c31 -11 81 -13 225 -8 102 4 210 11
240 16 30 5 165 14 300 20 135 5 306 15 380 20 74 5 406 14 738 20 632 11
1004 4 1332 -25 355 -31 407 -35 479 -37 65 -2 75 0 91 20 23 27 25 27 27 0 1
-13 6 -77 12 -143 6 -66 13 -223 17 -348 5 -168 10 -231 19 -241 18 -18 68
-23 335 -37 252 -13 416 -8 434 13 9 10 11 86 6 308 -4 162 -3 349 2 415 8
106 13 129 45 197 41 89 42 100 14 193 -37 125 -44 251 -32 523 16 333 14 747
-4 929 -32 333 -57 857 -69 1468 -9 460 -30 856 -72 1345 -78 928 -104 1098
-194 1285 -87 178 -149 262 -211 282 -63 20 -393 151 -535 211 -276 117 -430
197 -487 253 -28 28 -98 89 -155 135 -108 87 -145 102 -173 68z"/>
</g>
</svg>
